<svg xmlns="http://www.w3.org/2000/svg" xmlns:xlink="http://www.w3.org/1999/xlink" width="500" zoomAndPan="magnify" viewBox="0 0 375 374.999991" height="500" preserveAspectRatio="xMidYMid meet" version="1.0"><defs><g><g id="id1"/><g id="id2"/><g id="id3"/><g id="id4"/><g id="id5"/><g id="id6"/><g id="id7"/><g id="id8"/><g id="id9"/><g id="id10"/><g id="id11"/><g id="id12"/><g id="id13"/><g id="id14"/><g id="id15"/><g id="id16"/><g id="id17"/></g><clipPath id="id18"><path d="M 90.058594 191.152344 L 270.058594 191.152344 L 270.058594 201.652344 L 90.058594 201.652344 Z M 90.058594 191.152344 " clip-rule="nonzero"/></clipPath></defs><g clip-path="url(#id18)"><path fill="rgb(100%, 86.669922%, 0%)" d="M 96.160156 195.527344 C 93.417969 196.125 91.363281 196.996094 90.53125 197.9375 C 87.40625 201.476562 100.75 202.425781 102.316406 200.964844 C 99.339844 200.988281 97.769531 200.730469 96.832031 200.429688 C 125.972656 192.582031 222.242188 194.628906 270.058594 199.890625 C 264.183594 193.007812 136.628906 186.65625 96.160156 195.527344 Z M 96.160156 195.527344 " fill-opacity="1" fill-rule="nonzero"/></g><g fill="rgb(100%, 86.669922%, 0%)" fill-opacity="1"><g transform="translate(59.095769, 217.986118)"><g><path d="M 5.921875 -6.859375 L 6.5 -0.59375 L 5.046875 -0.453125 L 4.8125 -3.015625 L 1.953125 -2.765625 L 2.1875 -0.203125 L 0.75 -0.0625 L 0.171875 -6.328125 L 1.609375 -6.46875 L 1.84375 -4 L 4.703125 -4.25 L 4.46875 -6.71875 Z M 5.921875 -6.859375 "/></g></g></g><g fill="rgb(100%, 86.669922%, 0%)" fill-opacity="1"><g transform="translate(73.47932, 216.716318)"><g><path d="M 4.765625 -1.734375 L 1.859375 -1.5 L 1.40625 -0.109375 L -0.078125 0 L 2.21875 -6.5 L 3.65625 -6.609375 L 6.96875 -0.5625 L 5.4375 -0.4375 Z M 4.234375 -2.8125 L 3.03125 -5.125 L 2.25 -2.640625 Z M 4.234375 -2.8125 "/></g></g></g><g fill="rgb(100%, 86.669922%, 0%)" fill-opacity="1"><g transform="translate(87.500207, 215.638869)"><g><path d="M 4.75 -0.328125 L 3.40625 -2 L 3.328125 -1.984375 L 2.078125 -1.90625 L 2.203125 -0.15625 L 0.75 -0.046875 L 0.3125 -6.328125 L 3.015625 -6.515625 C 3.578125 -6.554688 4.070312 -6.492188 4.5 -6.328125 C 4.925781 -6.171875 5.257812 -5.929688 5.5 -5.609375 C 5.738281 -5.285156 5.875 -4.890625 5.90625 -4.421875 C 5.945312 -3.960938 5.863281 -3.554688 5.65625 -3.203125 C 5.457031 -2.847656 5.15625 -2.566406 4.75 -2.359375 L 6.3125 -0.4375 Z M 4.4375 -4.328125 C 4.414062 -4.679688 4.285156 -4.941406 4.046875 -5.109375 C 3.804688 -5.285156 3.46875 -5.359375 3.03125 -5.328125 L 1.859375 -5.25 L 2 -3.078125 L 3.171875 -3.15625 C 3.609375 -3.1875 3.9375 -3.300781 4.15625 -3.5 C 4.375 -3.695312 4.46875 -3.972656 4.4375 -4.328125 Z M 4.4375 -4.328125 "/></g></g></g><g fill="rgb(100%, 86.669922%, 0%)" fill-opacity="1"><g transform="translate(101.256227, 214.73728)"><g><path d="M 1.90625 0 C 1.476562 0.0195312 1.082031 -0.0351562 0.71875 -0.171875 C 0.363281 -0.316406 0.0625 -0.523438 -0.1875 -0.796875 L 0.5625 -1.8125 C 0.925781 -1.375 1.332031 -1.171875 1.78125 -1.203125 C 2.375 -1.234375 2.648438 -1.597656 2.609375 -2.296875 L 2.4375 -5.265625 L 0.21875 -5.140625 L 0.15625 -6.3125 L 3.8125 -6.53125 L 4.046875 -2.46875 C 4.085938 -1.6875 3.925781 -1.085938 3.5625 -0.671875 C 3.207031 -0.265625 2.65625 -0.0390625 1.90625 0 Z M 1.90625 0 "/></g></g></g><g fill="rgb(100%, 86.669922%, 0%)" fill-opacity="1"><g transform="translate(113.276095, 214.068844)"><g><path d="M 3.796875 -0.078125 C 3.140625 -0.046875 2.539062 -0.15625 2 -0.40625 C 1.46875 -0.664062 1.039062 -1.035156 0.71875 -1.515625 C 0.394531 -1.992188 0.21875 -2.546875 0.1875 -3.171875 C 0.164062 -3.785156 0.289062 -4.347656 0.5625 -4.859375 C 0.832031 -5.367188 1.222656 -5.773438 1.734375 -6.078125 C 2.253906 -6.390625 2.84375 -6.5625 3.5 -6.59375 C 4.15625 -6.625 4.75 -6.507812 5.28125 -6.25 C 5.8125 -5.988281 6.238281 -5.617188 6.5625 -5.140625 C 6.882812 -4.660156 7.054688 -4.113281 7.078125 -3.5 C 7.109375 -2.875 6.988281 -2.304688 6.71875 -1.796875 C 6.445312 -1.285156 6.054688 -0.878906 5.546875 -0.578125 C 5.035156 -0.273438 4.453125 -0.109375 3.796875 -0.078125 Z M 3.75 -1.328125 C 4.125 -1.335938 4.453125 -1.429688 4.734375 -1.609375 C 5.023438 -1.796875 5.25 -2.046875 5.40625 -2.359375 C 5.5625 -2.671875 5.628906 -3.023438 5.609375 -3.421875 C 5.597656 -3.804688 5.5 -4.148438 5.3125 -4.453125 C 5.125 -4.753906 4.875 -4.984375 4.5625 -5.140625 C 4.257812 -5.296875 3.921875 -5.367188 3.546875 -5.359375 C 3.171875 -5.335938 2.835938 -5.234375 2.546875 -5.046875 C 2.265625 -4.859375 2.046875 -4.609375 1.890625 -4.296875 C 1.734375 -3.984375 1.660156 -3.632812 1.671875 -3.25 C 1.691406 -2.851562 1.796875 -2.503906 1.984375 -2.203125 C 2.171875 -1.898438 2.414062 -1.671875 2.71875 -1.515625 C 3.03125 -1.367188 3.375 -1.304688 3.75 -1.328125 Z M 3.75 -1.328125 "/></g></g></g><g fill="rgb(100%, 86.669922%, 0%)" fill-opacity="1"><g transform="translate(128.024595, 213.411979)"><g><path d="M 5.25 -3.46875 C 5.613281 -3.375 5.90625 -3.191406 6.125 -2.921875 C 6.34375 -2.660156 6.457031 -2.335938 6.46875 -1.953125 C 6.488281 -1.398438 6.285156 -0.96875 5.859375 -0.65625 C 5.441406 -0.34375 4.820312 -0.171875 4 -0.140625 L 0.75 -0.03125 L 0.53125 -6.328125 L 3.609375 -6.4375 C 4.378906 -6.457031 4.972656 -6.328125 5.390625 -6.046875 C 5.804688 -5.773438 6.019531 -5.382812 6.03125 -4.875 C 6.039062 -4.570312 5.976562 -4.296875 5.84375 -4.046875 C 5.707031 -3.804688 5.507812 -3.613281 5.25 -3.46875 Z M 2.015625 -5.28125 L 2.0625 -3.796875 L 3.5 -3.84375 C 3.863281 -3.863281 4.140625 -3.9375 4.328125 -4.0625 C 4.515625 -4.195312 4.601562 -4.390625 4.59375 -4.640625 C 4.582031 -4.878906 4.476562 -5.054688 4.28125 -5.171875 C 4.09375 -5.296875 3.816406 -5.347656 3.453125 -5.328125 Z M 3.84375 -1.234375 C 4.226562 -1.242188 4.519531 -1.316406 4.71875 -1.453125 C 4.914062 -1.585938 5.007812 -1.789062 5 -2.0625 C 4.976562 -2.582031 4.578125 -2.828125 3.796875 -2.796875 L 2.109375 -2.734375 L 2.15625 -1.171875 Z M 3.84375 -1.234375 "/></g></g></g><g fill="rgb(100%, 86.669922%, 0%)" fill-opacity="1"><g transform="translate(142.069846, 212.947459)"><g><path d="M 4.859375 -1.46875 L 1.9375 -1.390625 L 1.40625 -0.03125 L -0.078125 0 L 2.578125 -6.359375 L 4.015625 -6.40625 L 6.984375 -0.171875 L 5.453125 -0.140625 Z M 4.375 -2.5625 L 3.3125 -4.953125 L 2.375 -2.515625 Z M 4.375 -2.5625 "/></g></g></g><g fill="rgb(100%, 86.669922%, 0%)" fill-opacity="1"><g transform="translate(156.127975, 212.639897)"><g><path d="M 6.453125 -6.390625 L 6.53125 -0.09375 L 5.328125 -0.078125 L 2.140625 -3.859375 L 2.1875 -0.03125 L 0.75 -0.015625 L 0.671875 -6.3125 L 1.875 -6.328125 L 5.046875 -2.53125 L 5 -6.359375 Z M 6.453125 -6.390625 "/></g></g></g><g fill="rgb(100%, 86.669922%, 0%)" fill-opacity="1"><g transform="translate(170.566071, 212.4888)"><g><path d="M 0.734375 -6.296875 L 3.59375 -6.296875 C 4.28125 -6.304688 4.882812 -6.179688 5.40625 -5.921875 C 5.925781 -5.660156 6.332031 -5.289062 6.625 -4.8125 C 6.925781 -4.34375 7.078125 -3.796875 7.078125 -3.171875 C 7.078125 -2.535156 6.929688 -1.976562 6.640625 -1.5 C 6.347656 -1.03125 5.941406 -0.664062 5.421875 -0.40625 C 4.898438 -0.144531 4.296875 -0.0078125 3.609375 0 L 0.75 0 Z M 3.53125 -1.203125 C 4.164062 -1.203125 4.671875 -1.378906 5.046875 -1.734375 C 5.421875 -2.085938 5.609375 -2.566406 5.609375 -3.171875 C 5.609375 -3.765625 5.414062 -4.234375 5.03125 -4.578125 C 4.65625 -4.929688 4.148438 -5.109375 3.515625 -5.109375 L 2.1875 -5.109375 L 2.203125 -1.203125 Z M 3.53125 -1.203125 "/></g></g></g><g fill="rgb(100%, 86.669922%, 0%)" fill-opacity="1"><g transform="translate(185.16831, 212.507446)"><g><path d="M 5.640625 -1.125 L 5.625 0.046875 L 0.75 0 L 0.8125 -6.296875 L 5.578125 -6.25 L 5.5625 -5.078125 L 2.25 -5.109375 L 2.234375 -3.75 L 5.15625 -3.71875 L 5.15625 -2.578125 L 2.234375 -2.609375 L 2.21875 -1.15625 Z M 5.640625 -1.125 "/></g></g></g><g fill="rgb(100%, 86.669922%, 0%)" fill-opacity="1"><g transform="translate(198.376187, 212.669366)"><g><path d="M 5.640625 -1.0625 L 5.625 0.109375 L 0.75 0.015625 L 0.875 -6.28125 L 5.640625 -6.1875 L 5.625 -5.015625 L 2.3125 -5.078125 L 2.28125 -3.71875 L 5.203125 -3.65625 L 5.171875 -2.515625 L 2.25 -2.578125 L 2.21875 -1.125 Z M 5.640625 -1.0625 "/></g></g></g><g fill="rgb(100%, 86.669922%, 0%)" fill-opacity="1"><g transform="translate(211.58102, 212.96987)"><g><path d="M 3.65625 -6.1875 C 4.21875 -6.175781 4.703125 -6.066406 5.109375 -5.859375 C 5.515625 -5.660156 5.820312 -5.390625 6.03125 -5.046875 C 6.238281 -4.703125 6.335938 -4.296875 6.328125 -3.828125 C 6.316406 -3.367188 6.191406 -2.96875 5.953125 -2.625 C 5.722656 -2.28125 5.398438 -2.023438 4.984375 -1.859375 C 4.566406 -1.691406 4.078125 -1.613281 3.515625 -1.625 L 2.25 -1.671875 L 2.203125 0.0625 L 0.75 0.015625 L 0.9375 -6.28125 Z M 3.484375 -2.8125 C 3.921875 -2.800781 4.253906 -2.882812 4.484375 -3.0625 C 4.722656 -3.25 4.847656 -3.519531 4.859375 -3.875 C 4.867188 -4.226562 4.757812 -4.5 4.53125 -4.6875 C 4.3125 -4.882812 3.984375 -4.988281 3.546875 -5 L 2.359375 -5.046875 L 2.296875 -2.859375 Z M 3.484375 -2.8125 "/></g></g></g><g fill="rgb(100%, 86.669922%, 0%)" fill-opacity="1"><g transform="translate(235.046613, 213.850678)"><g><path d="M 2.8125 0.25 C 2.3125 0.21875 1.832031 0.125 1.375 -0.03125 C 0.914062 -0.1875 0.550781 -0.378906 0.28125 -0.609375 L 0.828125 -1.6875 C 1.085938 -1.46875 1.398438 -1.289062 1.765625 -1.15625 C 2.128906 -1.019531 2.5 -0.941406 2.875 -0.921875 C 3.289062 -0.898438 3.601562 -0.945312 3.8125 -1.0625 C 4.019531 -1.175781 4.125 -1.332031 4.125 -1.53125 C 4.132812 -1.6875 4.082031 -1.816406 3.96875 -1.921875 C 3.851562 -2.023438 3.707031 -2.109375 3.53125 -2.171875 C 3.351562 -2.242188 3.109375 -2.328125 2.796875 -2.421875 C 2.328125 -2.554688 1.941406 -2.6875 1.640625 -2.8125 C 1.335938 -2.945312 1.082031 -3.144531 0.875 -3.40625 C 0.664062 -3.664062 0.570312 -4.007812 0.59375 -4.4375 C 0.613281 -4.800781 0.726562 -5.125 0.9375 -5.40625 C 1.15625 -5.695312 1.46875 -5.914062 1.875 -6.0625 C 2.28125 -6.207031 2.769531 -6.265625 3.34375 -6.234375 C 3.75 -6.222656 4.140625 -6.160156 4.515625 -6.046875 C 4.890625 -5.941406 5.21875 -5.789062 5.5 -5.59375 L 5 -4.515625 C 4.425781 -4.867188 3.851562 -5.054688 3.28125 -5.078125 C 2.863281 -5.097656 2.554688 -5.046875 2.359375 -4.921875 C 2.160156 -4.804688 2.054688 -4.640625 2.046875 -4.421875 C 2.035156 -4.203125 2.140625 -4.035156 2.359375 -3.921875 C 2.578125 -3.804688 2.914062 -3.6875 3.375 -3.5625 C 3.851562 -3.4375 4.238281 -3.304688 4.53125 -3.171875 C 4.832031 -3.046875 5.085938 -2.851562 5.296875 -2.59375 C 5.503906 -2.332031 5.597656 -1.992188 5.578125 -1.578125 C 5.554688 -1.222656 5.4375 -0.898438 5.21875 -0.609375 C 5.007812 -0.316406 4.703125 -0.09375 4.296875 0.0625 C 3.890625 0.21875 3.394531 0.28125 2.8125 0.25 Z M 2.8125 0.25 "/></g></g></g><g fill="rgb(100%, 86.669922%, 0%)" fill-opacity="1"><g transform="translate(247.944711, 214.524455)"><g><path d="M 1.109375 -6.234375 L 2.5625 -6.15625 L 2.203125 0.125 L 0.75 0.046875 Z M 1.109375 -6.234375 "/></g></g></g><g fill="rgb(100%, 86.669922%, 0%)" fill-opacity="1"><g transform="translate(258.050029, 215.139174)"><g><path d="M 6.9375 -5.84375 L 6.515625 0.4375 L 5.3125 0.359375 L 2.453125 -3.65625 L 2.1875 0.15625 L 0.75 0.046875 L 1.171875 -6.234375 L 2.375 -6.140625 L 5.234375 -2.125 L 5.484375 -5.9375 Z M 6.9375 -5.84375 "/></g></g></g><g fill="rgb(100%, 86.669922%, 0%)" fill-opacity="1"><g transform="translate(272.453046, 216.164039)"><g><path d="M 5.25 -2.84375 L 6.59375 -2.734375 L 6.375 -0.1875 C 6.019531 0.0390625 5.609375 0.207031 5.140625 0.3125 C 4.671875 0.414062 4.207031 0.445312 3.75 0.40625 C 3.101562 0.351562 2.53125 0.164062 2.03125 -0.15625 C 1.539062 -0.476562 1.164062 -0.894531 0.90625 -1.40625 C 0.644531 -1.925781 0.539062 -2.492188 0.59375 -3.109375 C 0.644531 -3.734375 0.835938 -4.28125 1.171875 -4.75 C 1.503906 -5.226562 1.945312 -5.582031 2.5 -5.8125 C 3.050781 -6.050781 3.65625 -6.144531 4.3125 -6.09375 C 4.863281 -6.039062 5.359375 -5.898438 5.796875 -5.671875 C 6.234375 -5.453125 6.585938 -5.15625 6.859375 -4.78125 L 5.859375 -4 C 5.441406 -4.507812 4.914062 -4.789062 4.28125 -4.84375 C 3.875 -4.875 3.507812 -4.816406 3.1875 -4.671875 C 2.875 -4.523438 2.617188 -4.304688 2.421875 -4.015625 C 2.222656 -3.734375 2.109375 -3.394531 2.078125 -3 C 2.046875 -2.601562 2.101562 -2.242188 2.25 -1.921875 C 2.394531 -1.609375 2.613281 -1.351562 2.90625 -1.15625 C 3.207031 -0.96875 3.554688 -0.859375 3.953125 -0.828125 C 4.367188 -0.796875 4.75 -0.859375 5.09375 -1.015625 Z M 5.25 -2.84375 "/></g></g></g><g fill="rgb(100%, 86.669922%, 0%)" fill-opacity="1"><g transform="translate(286.511647, 217.325091)"><g><path d="M 7.078125 -5.671875 L 6.5 0.59375 L 5.046875 0.453125 L 5.28125 -2.109375 L 2.421875 -2.359375 L 2.1875 0.203125 L 0.75 0.0625 L 1.328125 -6.203125 L 2.765625 -6.0625 L 2.53125 -3.59375 L 5.390625 -3.34375 L 5.625 -5.8125 Z M 7.078125 -5.671875 "/></g></g></g><g fill="rgb(100%, 86.669922%, 0%)" fill-opacity="1"><g transform="translate(137.371755, 177.265769)"><g><path d="M 17.863281 -47.128906 C 13.667969 -39.75 9.8125 -32.203125 6.039062 -24.488281 C 1.675781 -23.898438 -2.433594 -23.230469 -5.871094 -22.726562 C -7.964844 -22.304688 -6.707031 -19.371094 -6.207031 -18.28125 C -2.851562 -12.074219 -3.859375 -6.207031 -6.375 0.167969 C -6.539062 0.671875 -6.457031 1.007812 -6.207031 1.257812 C -6.121094 2.347656 -4.949219 3.523438 -4.191406 3.523438 C -3.941406 3.523438 -3.691406 3.355469 -3.605469 3.019531 C 0 -4.191406 4.445312 -12.746094 8.972656 -21.214844 C 13.585938 -21.550781 18.363281 -21.886719 22.726562 -21.96875 C 16.015625 -6.625 11.574219 8.890625 16.6875 12.328125 C 16.855469 12.496094 17.105469 12.496094 17.273438 12.496094 C 17.863281 12.496094 18.449219 11.992188 17.527344 11.40625 C 14.171875 9.390625 20.964844 -6.457031 28.59375 -21.804688 C 30.441406 -21.71875 32.035156 -21.382812 33.125 -21.132812 C 34.382812 -20.796875 35.722656 -25.15625 30.691406 -25.828125 C 36.898438 -37.902344 43.269531 -48.972656 45.117188 -51.65625 C 46.121094 -53.25 43.269531 -54.171875 41.339844 -54.171875 C 40.585938 -54.171875 39.917969 -54.003906 39.75 -53.667969 C 36.226562 -49.054688 30.019531 -37.902344 24.570312 -25.996094 C 20.292969 -25.996094 15.597656 -25.660156 10.984375 -25.074219 C 14.84375 -32.285156 18.699219 -39.328125 22.136719 -45.367188 C 22.304688 -45.703125 20.042969 -47.632812 18.699219 -47.632812 C 18.363281 -47.632812 18.113281 -47.546875 17.863281 -47.128906 Z M -4.613281 -19.707031 C -2.179688 -20.042969 0.839844 -20.378906 4.191406 -20.796875 L -2.347656 -7.128906 C -1.761719 -11.40625 -2.347656 -15.597656 -4.613281 -19.707031 Z M -4.613281 -19.707031 "/></g></g></g><g fill="rgb(100%, 86.669922%, 0%)" fill-opacity="1"><g transform="translate(165.963798, 177.265769)"><g><path d="M 11.738281 -4.445312 C 11.738281 -5.535156 10.734375 -6.707031 9.054688 -6.707031 C 7.378906 -6.707031 5.449219 -3.691406 5.449219 -2.515625 C 5.449219 -0.839844 6.457031 0 8.21875 0 C 9.980469 0 11.738281 -2.515625 11.738281 -4.445312 Z M 11.738281 -4.445312 "/></g></g></g><g fill="rgb(100%, 86.669922%, 0%)" fill-opacity="1"><g transform="translate(182.314086, 177.265769)"><g><path d="M 36.8125 -27.925781 C 41.675781 -37.148438 42.597656 -49.980469 33.375 -49.980469 C 32.285156 -49.980469 30.945312 -49.726562 29.351562 -49.222656 C 20.378906 -46.625 -0.335938 -31.613281 -0.167969 -17.695312 C -0.0820312 -9.558594 9.308594 -5.535156 15.09375 -4.445312 C 17.609375 -3.941406 20.292969 -3.691406 22.808594 -3.019531 C 24.234375 -2.683594 26.414062 -2.347656 24.738281 0.0820312 C 22.640625 3.355469 15.09375 8.386719 11.65625 8.386719 C 10.398438 8.386719 9.894531 7.964844 9.222656 6.960938 C 9.054688 6.625 8.804688 6.539062 8.636719 6.539062 C 8.300781 6.539062 8.132812 6.960938 8.300781 7.464844 C 8.890625 10.148438 10.734375 11.738281 13.5 11.738281 C 16.9375 11.738281 21.132812 9.054688 23.5625 7.042969 C 26.078125 4.695312 30.523438 -0.753906 26.917969 -4.527344 C 22.054688 -9.894531 5.617188 -8.21875 4.023438 -15.511719 C 2.097656 -24.320312 21.886719 -40.25 25.996094 -42.347656 C 27.757812 -43.269531 31.53125 -45.367188 34.214844 -45.367188 C 34.96875 -45.367188 35.640625 -45.199219 36.144531 -44.863281 C 38.492188 -43.269531 36.476562 -36.058594 33.039062 -29.433594 C 31.53125 -26.667969 25.996094 -16.9375 22.808594 -16.9375 L 22.390625 -16.9375 C 22.136719 -16.9375 21.96875 -16.855469 21.804688 -16.6875 C 21.300781 -16.269531 21.71875 -15.847656 22.054688 -15.679688 C 22.640625 -15.429688 23.230469 -15.347656 23.816406 -15.347656 C 29.183594 -15.347656 34.632812 -23.730469 36.8125 -27.925781 Z M 36.8125 -27.925781 "/></g></g></g></svg>